<svg xmlns="http://www.w3.org/2000/svg" width="512" height="512" viewBox="0 0 512 512" version="1.1"><path d="M 105.500 1.477 C 98.843 3.188, 102.794 3.257, 111 1.573 C 115.749 0.598, 116.557 0.232, 114 0.215 C 112.075 0.202, 108.250 0.770, 105.500 1.477 M 120.250 0.716 C 121.763 0.945, 124.237 0.945, 125.750 0.716 C 127.263 0.487, 126.025 0.300, 123 0.300 C 119.975 0.300, 118.737 0.487, 120.250 0.716 M 226.250 0.750 C 252.512 0.898, 295.487 0.898, 321.750 0.750 C 348.012 0.601, 326.525 0.480, 274 0.480 C 221.475 0.480, 199.987 0.601, 226.250 0.750 M 387.250 0.716 C 388.762 0.945, 391.238 0.945, 392.750 0.716 C 394.262 0.487, 393.025 0.300, 390 0.300 C 386.975 0.300, 385.738 0.487, 387.250 0.716 M 90 5.231 C 86.425 6.356, 83.950 7.429, 84.500 7.618 C 85.050 7.806, 88.875 6.881, 93 5.561 C 97.125 4.242, 99.600 3.168, 98.500 3.175 C 97.400 3.182, 93.575 4.107, 90 5.231 M 417 4.552 C 419.475 5.332, 421.950 5.942, 422.500 5.909 C 424.250 5.802, 416.586 3.153, 414.500 3.143 C 413.400 3.138, 414.525 3.772, 417 4.552 M 424 6.276 C 424.827 7.143, 437.308 12.025, 437.699 11.635 C 437.898 11.435, 435.910 10.363, 433.280 9.251 C 427.908 6.979, 423.245 5.484, 424 6.276 M 75.422 10.822 C 65.129 15.356, 52.499 23.725, 42.461 32.663 C 37.185 37.359, 33.070 41.403, 33.315 41.648 C 33.560 41.893, 36.627 39.365, 40.130 36.030 C 49.352 27.251, 60.884 19.248, 72.945 13.258 C 84.179 7.680, 85.495 6.385, 75.422 10.822 M 439.425 12.879 C 439.724 13.363, 440.988 14.016, 442.234 14.330 C 444.420 14.880, 444.432 14.849, 442.559 13.450 C 440.409 11.844, 438.580 11.511, 439.425 12.879 M 446.369 16.236 C 457.683 23.890, 464.138 27.872, 462.989 26.487 C 461.373 24.539, 452.781 18.907, 447.858 16.567 C 446.011 15.690, 445.341 15.540, 446.369 16.236 M 470 32.082 C 470 32.922, 481.148 44.185, 481.566 43.767 C 481.776 43.557, 479.259 40.725, 475.974 37.474 C 472.688 34.223, 470 31.796, 470 32.082 M 29.887 45.750 C 26.526 49.466, 24.649 52, 25.257 52 C 25.533 52, 27.418 49.975, 29.446 47.500 C 33.516 42.534, 33.794 41.430, 29.887 45.750 M 488.041 53.407 C 492.488 59.600, 494.264 60.697, 490.141 54.705 C 488.399 52.174, 486.445 49.775, 485.799 49.376 C 485.153 48.976, 486.162 50.791, 488.041 53.407 M 19.704 59.166 C 17.617 62.508, 16.094 65.428, 16.321 65.655 C 16.548 65.882, 18.578 63.127, 20.831 59.534 C 23.084 55.940, 24.606 53.020, 24.214 53.045 C 23.821 53.070, 21.792 55.824, 19.704 59.166 M 8.063 82.563 C 6.889 85.698, 6.105 88.438, 6.318 88.652 C 6.532 88.865, 7.683 86.491, 8.875 83.375 C 10.067 80.259, 10.852 77.519, 10.619 77.286 C 10.386 77.053, 9.236 79.427, 8.063 82.563 M 270.500 83.299 C 266.425 85.244, 253.939 97.594, 203 150.066 C 168.625 185.475, 131.921 223.233, 121.435 233.973 C 99.283 256.662, 96.450 260.995, 96.572 272 C 96.713 284.749, 104.454 297.249, 115.221 302.114 C 120.500 304.500, 120.500 304.500, 180.250 304.820 C 213.113 304.996, 240 305.425, 240 305.773 C 240 306.122, 233.181 327.803, 224.848 353.953 C 216.514 380.104, 209.482 403.874, 209.222 406.776 C 207.997 420.419, 218.674 432.089, 232.496 432.214 C 241.322 432.293, 245.385 429.560, 262.322 412.150 C 270.670 403.569, 286.959 386.863, 298.521 375.024 C 310.083 363.186, 332.358 340.226, 348.021 324.002 C 363.684 307.777, 384.185 286.627, 393.577 277.002 C 413.756 256.320, 416.517 251.918, 416.473 240.500 C 416.428 228.938, 410.068 218.076, 400.196 212.703 C 392.776 208.664, 382.885 208.055, 324.250 208.026 C 296.063 208.012, 273 207.629, 273 207.175 C 273 206.721, 274.145 203.009, 275.545 198.925 C 276.944 194.841, 283.955 173.050, 291.124 150.500 C 303.369 111.986, 304.137 109.093, 303.799 102.793 C 303.377 94.923, 300.225 89.510, 293.179 84.558 C 287.202 80.357, 277.759 79.833, 270.500 83.299 M 504.157 82.500 C 504.154 83.050, 504.759 85.075, 505.500 87 C 506.241 88.925, 506.862 89.825, 506.879 89 C 506.896 88.175, 506.292 86.150, 505.536 84.500 C 504.781 82.850, 504.160 81.950, 504.157 82.500 M 1 109 C 1 110.650, 1.174 112, 1.387 112 C 1.599 112, 1.971 110.650, 2.213 109 C 2.455 107.350, 2.282 106, 1.827 106 C 1.372 106, 1 107.350, 1 109 M 511.189 111.500 C 511.162 113.700, 511.527 116.400, 512 117.500 C 512.728 119.194, 512.852 119.041, 512.811 116.500 C 512.785 114.850, 512.420 112.150, 512 110.500 C 511.270 107.633, 511.235 107.677, 511.189 111.500 M 0.405 142.500 C 0.406 151.300, 0.559 154.766, 0.745 150.203 C 0.930 145.639, 0.929 138.439, 0.742 134.203 C 0.555 129.966, 0.404 133.700, 0.405 142.500 M 250.045 147.345 C 244.295 153.480, 222.695 175.852, 202.045 197.059 C 181.395 218.267, 156.685 243.804, 147.133 253.809 C 129.766 272, 129.766 272, 181.133 272.036 C 242.951 272.079, 250.057 272.544, 257.017 277.011 C 266.707 283.229, 272.413 293.308, 272.297 304 C 272.239 309.355, 270.441 316.124, 262.090 342.429 C 256.515 359.991, 252.089 374.766, 252.255 375.264 C 252.502 376.006, 362.167 263.877, 378.359 246.325 C 383.133 241.151, 383.133 241.151, 374.316 240.732 C 369.467 240.502, 343.225 240.320, 316 240.328 C 271.761 240.342, 265.950 240.160, 261.329 238.618 C 254.129 236.214, 247.750 230.269, 243.831 222.308 C 238.991 212.477, 239.305 206.705, 245.754 187 C 250.915 171.230, 260.221 142.335, 261.455 138.250 C 261.829 137.012, 261.767 136.043, 261.317 136.095 C 260.868 136.147, 255.795 141.210, 250.045 147.345 M 0.413 371.500 C 0.414 381.400, 0.564 385.315, 0.746 380.199 C 0.928 375.084, 0.927 366.984, 0.744 362.199 C 0.561 357.415, 0.412 361.600, 0.413 371.500 M 0.252 396.500 C 0.263 398.700, 0.468 399.482, 0.707 398.238 C 0.946 396.994, 0.937 395.194, 0.687 394.238 C 0.437 393.282, 0.241 394.300, 0.252 396.500 M 1.232 404 C 1.232 405.925, 1.438 406.712, 1.689 405.750 C 1.941 404.788, 1.941 403.212, 1.689 402.250 C 1.438 401.288, 1.232 402.075, 1.232 404 M 509.500 410 C 509.116 412.274, 509.026 414.360, 509.301 414.635 C 509.576 414.910, 510.116 413.274, 510.500 411 C 510.884 408.726, 510.974 406.640, 510.699 406.365 C 510.424 406.090, 509.884 407.726, 509.500 410 M 3.053 413.601 C 2.995 415.912, 3.934 419.082, 7.707 429.307 C 9.088 433.051, 10.400 435.933, 10.622 435.711 C 10.845 435.489, 10.348 433.684, 9.519 431.701 C 8.691 429.717, 6.909 424.361, 5.560 419.797 C 4.210 415.234, 3.082 412.445, 3.053 413.601 M 506.035 424.091 C 504.717 428.653, 501.268 437.137, 498.370 442.943 C 495.473 448.749, 493.791 452.600, 494.634 451.500 C 499.313 445.388, 509.776 419.828, 508.799 416.896 C 508.597 416.291, 507.353 419.529, 506.035 424.091 M 15.015 445.193 C 14.995 446.099, 19.070 453, 19.624 453 C 19.859 453, 19.381 451.762, 18.562 450.250 C 16.524 446.487, 15.034 444.361, 15.015 445.193 M 22.965 458.449 C 24.648 460.896, 26.503 463.193, 27.086 463.553 C 27.669 463.914, 26.496 461.912, 24.479 459.104 C 19.976 452.835, 18.733 452.297, 22.965 458.449 M 484.434 464.750 C 482.138 467.821, 482.043 468.140, 483.908 466.511 C 486.078 464.616, 488.536 461, 487.654 461 C 487.425 461, 485.976 462.688, 484.434 464.750 M 36.500 475 C 39.209 477.750, 41.778 480, 42.209 480 C 42.640 480, 40.659 477.750, 37.806 475 C 34.953 472.250, 32.384 470, 32.097 470 C 31.810 470, 33.791 472.250, 36.500 475 M 474.879 475.250 C 472.337 477.863, 470.556 480, 470.921 480 C 471.812 480, 480.493 471.115, 479.938 470.771 C 479.697 470.622, 477.421 472.637, 474.879 475.250 M 464 485.123 C 461.297 487.564, 460.698 488.394, 462.500 487.201 C 465.264 485.372, 469.842 480.961, 468.905 481.030 C 468.682 481.046, 466.475 482.888, 464 485.123 M 455.987 490.722 C 454.634 491.669, 449.697 494.593, 445.014 497.220 C 436.148 502.193, 434.793 503.723, 442.855 499.658 C 450.682 495.711, 460.674 489, 458.723 489 C 458.570 489, 457.339 489.775, 455.987 490.722 M 426.269 505.139 C 421.741 506.748, 414.091 508.905, 409.269 509.932 C 403.504 511.160, 401.699 511.822, 404 511.864 C 409.466 511.965, 429.108 506.362, 434.705 503.105 C 437.637 501.399, 435.007 502.033, 426.269 505.139 M 90.500 507.536 C 92.150 508.292, 94.400 508.900, 95.500 508.888 C 96.600 508.876, 95.475 508.228, 93 507.448 C 87.448 505.699, 86.556 505.730, 90.500 507.536 M 99.500 510 C 100.600 510.473, 102.625 510.846, 104 510.830 C 106.500 510.801, 106.500 510.801, 104 510 C 102.625 509.560, 100.600 509.186, 99.500 509.170 C 97.500 509.141, 97.500 509.141, 99.500 510 M 108.762 511.707 C 110.006 511.946, 111.806 511.937, 112.762 511.687 C 113.718 511.437, 112.700 511.241, 110.500 511.252 C 108.300 511.263, 107.518 511.468, 108.762 511.707" stroke="none" fill="#f7f9f8" fill-rule="evenodd"/><path d="M 108.500 2.077 C 81.809 6.755, 58.625 18.309, 39.973 36.229 C 22.777 52.751, 10.568 73.490, 4.493 96.500 C 2.803 102.901, 2.744 103.233, 1.140 115.500 C -0.244 126.086, -0.200 387.265, 1.188 398.500 C 3.187 414.682, 9.360 434.195, 16.360 446.455 C 26.956 465.014, 43.550 482.897, 58.156 491.500 C 74.039 500.854, 82.692 504.617, 98 508.825 C 107.500 511.437, 107.500 511.437, 252.956 511.744 C 395.635 512.046, 398.601 512.013, 408.326 510.030 C 418.892 507.875, 433.920 503.066, 440.500 499.735 C 480.624 479.422, 504.699 445.544, 511.727 399.500 C 512.617 393.671, 512.894 120.485, 512.013 117.500 C 511.526 115.850, 510.923 111.800, 510.672 108.500 C 509.877 98.048, 504.405 81.213, 497.713 68.634 C 480.780 36.807, 451.515 13.948, 415 4.027 C 410.875 2.906, 407.387 1.991, 407.250 1.994 C 407.113 1.997, 406.887 1.973, 406.750 1.940 C 403.623 1.186, 374.371 0.952, 257.500 0.746 C 133.743 0.529, 116.456 0.683, 108.500 2.077 M 270.500 83.299 C 266.425 85.244, 253.939 97.594, 203 150.066 C 168.625 185.475, 131.921 223.233, 121.435 233.973 C 99.283 256.662, 96.450 260.995, 96.572 272 C 96.713 284.749, 104.454 297.249, 115.221 302.114 C 120.500 304.500, 120.500 304.500, 180.250 304.820 C 213.113 304.996, 240 305.425, 240 305.773 C 240 306.122, 233.181 327.803, 224.848 353.953 C 216.514 380.104, 209.482 403.874, 209.222 406.776 C 207.997 420.419, 218.674 432.089, 232.496 432.214 C 241.322 432.293, 245.385 429.560, 262.322 412.150 C 270.670 403.569, 286.959 386.863, 298.521 375.024 C 310.083 363.186, 332.358 340.226, 348.021 324.002 C 363.684 307.777, 384.185 286.627, 393.577 277.002 C 413.756 256.320, 416.517 251.918, 416.473 240.500 C 416.428 228.938, 410.068 218.076, 400.196 212.703 C 392.776 208.664, 382.885 208.055, 324.250 208.026 C 296.063 208.012, 273 207.629, 273 207.175 C 273 206.721, 274.145 203.009, 275.545 198.925 C 276.944 194.841, 283.955 173.050, 291.124 150.500 C 303.369 111.986, 304.137 109.093, 303.799 102.793 C 303.377 94.923, 300.225 89.510, 293.179 84.558 C 287.202 80.357, 277.759 79.833, 270.500 83.299 M 0.252 123.500 C 0.263 125.700, 0.468 126.482, 0.707 125.238 C 0.946 123.994, 0.937 122.194, 0.687 121.238 C 0.437 120.282, 0.241 121.300, 0.252 123.500 M 250.045 147.345 C 244.295 153.480, 222.695 175.852, 202.045 197.059 C 181.395 218.267, 156.685 243.804, 147.133 253.809 C 129.766 272, 129.766 272, 181.133 272.036 C 242.951 272.079, 250.057 272.544, 257.017 277.011 C 266.707 283.229, 272.413 293.308, 272.297 304 C 272.239 309.355, 270.441 316.124, 262.090 342.429 C 256.515 359.991, 252.089 374.766, 252.255 375.264 C 252.502 376.006, 362.167 263.877, 378.359 246.325 C 383.133 241.151, 383.133 241.151, 374.316 240.732 C 369.467 240.502, 343.225 240.320, 316 240.328 C 271.761 240.342, 265.950 240.160, 261.329 238.618 C 254.129 236.214, 247.750 230.269, 243.831 222.308 C 238.991 212.477, 239.305 206.705, 245.754 187 C 250.915 171.230, 260.221 142.335, 261.455 138.250 C 261.829 137.012, 261.767 136.043, 261.317 136.095 C 260.868 136.147, 255.795 141.210, 250.045 147.345 M 0.481 256 C 0.481 310.175, 0.602 332.337, 0.750 305.250 C 0.898 278.162, 0.898 233.837, 0.750 206.750 C 0.602 179.662, 0.481 201.825, 0.481 256" stroke="none" fill="#359174" fill-rule="evenodd"/></svg>